<svg xmlns="http://www.w3.org/2000/svg" width="112" height="72" viewBox="0 0 112 72">
  <defs>
    <radialGradient id="bodyGlow" cx="62%" cy="45%" r="58%">
      <stop offset="0%" stop-color="#f8ffd0"/>
      <stop offset="52%" stop-color="#cfff58"/>
      <stop offset="100%" stop-color="#5eb85b"/>
    </radialGradient>
    <linearGradient id="finAmber" x1="0" y1="0" x2="1" y2="1">
      <stop offset="0%" stop-color="#fff08a"/>
      <stop offset="100%" stop-color="#f0a64e"/>
    </linearGradient>
    <filter id="softGlow" x="-35%" y="-45%" width="170%" height="190%">
      <feGaussianBlur stdDeviation="3" result="blur"/>
      <feMerge>
        <feMergeNode in="blur"/>
        <feMergeNode in="SourceGraphic"/>
      </feMerge>
    </filter>
  </defs>
  <ellipse cx="58" cy="39" rx="43" ry="17" fill="#86ff86" opacity="0.18" filter="url(#softGlow)"/>
  <path d="M17 37 L4 22 L10 37 L4 52 Z" fill="#8fdc6d" opacity="0.92"/>
  <path d="M29 22 C40 10 62 10 82 20 L104 36 L82 52 C61 63 38 61 28 49 C22 43 22 29 29 22 Z" fill="url(#bodyGlow)"/>
  <path d="M35 23 C45 16 61 15 76 21 C57 23 43 30 31 40 C27 33 28 27 35 23 Z" fill="#faffb8" opacity="0.45"/>
  <path d="M54 16 L45 3 L66 17 Z" fill="url(#finAmber)" opacity="0.82"/>
  <path d="M56 56 L46 70 L68 55 Z" fill="url(#finAmber)" opacity="0.76"/>
  <path d="M83 25 L104 36 L83 47 C90 39 90 32 83 25 Z" fill="#e7ff64"/>
  <circle cx="79" cy="31" r="4.2" fill="#063b42"/>
  <circle cx="80.4" cy="29.5" r="1.2" fill="#eaffff"/>
  <path d="M31 45 C45 52 63 53 83 43" fill="none" stroke="#fff6a0" stroke-width="3" stroke-linecap="round" opacity="0.42"/>
  <circle cx="31" cy="28" r="2.8" fill="#eaff83" opacity="0.82"/>
  <circle cx="47" cy="21" r="2.2" fill="#f8ffd0" opacity="0.7"/>
  <circle cx="62" cy="52" r="2.4" fill="#dfff71" opacity="0.72"/>
</svg>
