<svg xmlns="http://www.w3.org/2000/svg" width="128" height="96" viewBox="0 0 128 96">
  <defs>
    <radialGradient id="softFocus" cx="50%" cy="52%" r="58%">
      <stop offset="0%" stop-color="#fff5ba" stop-opacity="0.46"/>
      <stop offset="66%" stop-color="#a8ffe4" stop-opacity="0.16"/>
      <stop offset="100%" stop-color="#a8ffe4" stop-opacity="0"/>
    </radialGradient>
  </defs>
  <rect width="128" height="96" fill="none"/>
  <ellipse cx="64" cy="52" rx="58" ry="36" fill="url(#softFocus)"/>
  <path d="M12 58 C28 42 46 36 66 40 C84 44 98 46 118 36 L124 58 C102 74 78 76 58 66 C42 58 28 64 8 74 Z" fill="#2b3f42" opacity="0.72"/>
  <path d="M16 58 C34 48 48 48 64 54 C82 62 98 58 116 48" fill="none" stroke="#f5e5a8" stroke-width="7" stroke-linecap="round" opacity="0.52"/>
  <path d="M32 50 C40 26 52 22 60 52 C70 32 82 34 86 60 C66 70 46 66 32 50 Z" fill="#ffd889" opacity="0.9"/>
  <path d="M44 60 C46 48 48 36 52 25 M58 62 C62 48 68 38 80 34" fill="none" stroke="#fff4c8" stroke-width="4" stroke-linecap="round" opacity="0.58"/>
  <path d="M78 58 C86 38 98 34 106 58 C112 50 120 50 124 66 C108 74 90 72 78 58 Z" fill="#c8e8c2" opacity="0.72"/>
  <circle cx="24" cy="66" r="4" fill="#f8ffc8" opacity="0.72"/>
  <circle cx="96" cy="48" r="3" fill="#d6fff0" opacity="0.62"/>
  <path d="M20 82 C38 76 56 78 76 84 C94 90 110 84 124 78" fill="none" stroke="#80ffdf" stroke-width="4" stroke-linecap="round" opacity="0.24"/>
</svg>
