<svg xmlns="http://www.w3.org/2000/svg" width="96" height="96" viewBox="0 0 96 96">
  <defs>
    <linearGradient id="blade" x1="0" y1="0" x2="0" y2="1">
      <stop offset="0%" stop-color="#8dff83"/>
      <stop offset="58%" stop-color="#24b85c"/>
      <stop offset="100%" stop-color="#0b6f48"/>
    </linearGradient>
    <linearGradient id="edge" x1="0" y1="0" x2="1" y2="1">
      <stop offset="0%" stop-color="#d8ffc0" stop-opacity="0.9"/>
      <stop offset="100%" stop-color="#52df8a" stop-opacity="0.2"/>
    </linearGradient>
  </defs>
  <ellipse cx="49" cy="80" rx="25" ry="7" fill="#073f36" opacity="0.34"/>
  <path d="M45 83 C42 66, 42 45, 48 18 C55 33, 54 57, 50 84 Z" fill="url(#blade)"/>
  <path d="M37 82 C24 66, 18 43, 26 18 C37 32, 43 56, 43 84 Z" fill="#31c667"/>
  <path d="M58 82 C70 62, 74 38, 65 15 C55 34, 51 58, 53 84 Z" fill="#1f9d5a"/>
  <path d="M32 76 C22 66, 16 53, 17 39 C29 46, 36 61, 40 81 Z" fill="#72eb77" opacity="0.88"/>
  <path d="M64 77 C74 66, 79 52, 77 36 C66 46, 59 62, 56 82 Z" fill="#0f774f" opacity="0.94"/>
  <path d="M47 81 C47 62, 47 41, 49 21" fill="none" stroke="#d4ffc8" stroke-width="3" stroke-linecap="round" opacity="0.62"/>
  <path d="M31 78 C30 60, 28 40, 27 22" fill="none" stroke="url(#edge)" stroke-width="3" stroke-linecap="round"/>
  <path d="M63 78 C63 60, 65 38, 65 18" fill="none" stroke="#b8ffd0" stroke-width="3" stroke-linecap="round" opacity="0.38"/>
  <circle cx="28" cy="24" r="3" fill="#b9ff90" opacity="0.75"/>
  <circle cx="66" cy="22" r="2.5" fill="#7cf5aa" opacity="0.7"/>
  <circle cx="45" cy="18" r="2.5" fill="#e5ffb8" opacity="0.66"/>
</svg>
