<svg xmlns="http://www.w3.org/2000/svg" width="96" height="96" viewBox="0 0 96 96">
  <defs>
    <radialGradient id="halo" cx="50%" cy="50%" r="50%">
      <stop offset="0%" stop-color="#eaff7a" stop-opacity="0.95"/>
      <stop offset="48%" stop-color="#6fffd1" stop-opacity="0.42"/>
      <stop offset="100%" stop-color="#4fd6ff" stop-opacity="0"/>
    </radialGradient>
    <radialGradient id="core" cx="48%" cy="44%" r="45%">
      <stop offset="0%" stop-color="#ffffa8"/>
      <stop offset="58%" stop-color="#d9ff36"/>
      <stop offset="100%" stop-color="#66e6b5"/>
    </radialGradient>
  </defs>
  <circle cx="48" cy="48" r="42" fill="url(#halo)"/>
  <path d="M48 12 L57 33 L80 36 L63 52 L68 76 L48 62 L28 76 L33 52 L16 36 L39 33 Z" fill="#baff3d" opacity="0.78"/>
  <path d="M48 24 L60 39 L55 58 L38 58 L33 39 Z" fill="url(#core)"/>
  <circle cx="36" cy="30" r="4" fill="#eaff7a" opacity="0.85"/>
  <circle cx="64" cy="42" r="3" fill="#d5ff5a" opacity="0.9"/>
  <circle cx="30" cy="58" r="3" fill="#70ffd8" opacity="0.74"/>
  <circle cx="58" cy="67" r="4" fill="#e8ff68" opacity="0.78"/>
  <path d="M30 48 C38 42, 57 42, 66 48" fill="none" stroke="#f7ffd3" stroke-width="4" stroke-linecap="round" opacity="0.62"/>
</svg>
