<svg xmlns="http://www.w3.org/2000/svg" width="256" height="160" viewBox="0 0 256 160">
  <defs>
    <linearGradient id="thresholdFade" x1="0" y1="0" x2="1" y2="0">
      <stop offset="0%" stop-color="#0b6172" stop-opacity="0.05"/>
      <stop offset="45%" stop-color="#0b6172" stop-opacity="0.42"/>
      <stop offset="100%" stop-color="#031625" stop-opacity="0.88"/>
    </linearGradient>
    <radialGradient id="echoMist" cx="70%" cy="48%" r="62%">
      <stop offset="0%" stop-color="#9cf7ff" stop-opacity="0.36"/>
      <stop offset="46%" stop-color="#255c74" stop-opacity="0.18"/>
      <stop offset="100%" stop-color="#020914" stop-opacity="0"/>
    </radialGradient>
  </defs>
  <rect width="256" height="160" fill="none"/>
  <path d="M24 20 L144 4 L234 18 L256 160 L0 160 Z" fill="url(#thresholdFade)"/>
  <path d="M126 8 L154 28 L130 160 L94 160 Z" fill="#103a4a" opacity="0.46"/>
  <path d="M170 12 L208 30 L196 160 L154 160 Z" fill="#061e31" opacity="0.62"/>
  <path d="M78 72 C98 56 124 54 146 66 C166 78 188 76 214 62 L228 88 C198 106 166 110 136 94 C114 82 94 86 72 104 Z" fill="#0e8591" opacity="0.2"/>
  <path d="M86 75 C108 64 128 65 148 76 C164 86 184 86 205 76" fill="none" stroke="#a5fff3" stroke-width="4" stroke-linecap="round" opacity="0.42"/>
  <path d="M98 100 C118 90 139 92 158 104 C174 114 194 113 215 100" fill="none" stroke="#5fd4ff" stroke-width="3" stroke-linecap="round" opacity="0.24"/>
  <circle cx="186" cy="80" r="62" fill="url(#echoMist)"/>
  <path d="M170 60 L190 52 L214 65 L218 88 L196 104 L168 96 L156 76 Z" fill="#07111d" opacity="0.72"/>
  <path d="M177 68 L194 64 L207 72 L202 84 L184 86 Z" fill="#1e5266" opacity="0.72"/>
  <circle cx="202" cy="74" r="5" fill="#d9ff8e" opacity="0.88"/>
  <circle cx="202" cy="74" r="16" fill="none" stroke="#d9ff8e" stroke-width="3" opacity="0.34"/>
  <path d="M32 124 L70 112 L112 122 L148 116 L188 128 L230 118" fill="none" stroke="#0dd0e3" stroke-width="5" stroke-linecap="round" opacity="0.22"/>
  <path d="M34 136 L86 130 L128 138 L182 132 L224 140" fill="none" stroke="#d9ff8e" stroke-width="3" stroke-linecap="round" opacity="0.16"/>
  <path d="M24 20 L144 4 L234 18" fill="none" stroke="#bffaff" stroke-width="3" stroke-linecap="round" opacity="0.28"/>
</svg>
