<?xml version="1.0" encoding="UTF-8"?>
<svg xmlns="http://www.w3.org/2000/svg" width="1400" height="760" viewBox="0 0 1400 760">
<rect width="100%" height="100%" fill="#031423"/>
<text x="28" y="38" fill="#f4fbff" font-family="Arial, sans-serif" font-size="24" font-weight="700">Area 01 Wall / Collision Authority Map v1</text>
<text x="28" y="66" fill="#9fd8e8" font-family="Arial, sans-serif" font-size="15">Cyan = intended playable water lanes. Dark reef = solid terrain. Red outline = exact collision polygon generated in game.</text>
<g opacity="0.95">
<polygon points="369.1,15.0 445.5,15.0 460.7,82.8 348.7,82.8" fill="#0faec4" fill-opacity="0.18" stroke="#36e8ff" stroke-opacity="0.8" stroke-width="2"/>
<text x="406.0" y="48.9" fill="#bff7ff" font-family="Arial, sans-serif" font-size="12" text-anchor="middle">surface_entry_lane</text>
<polygon points="351.3,52.7 498.9,52.7 521.8,413.9 333.5,413.9" fill="#0faec4" fill-opacity="0.18" stroke="#36e8ff" stroke-opacity="0.8" stroke-width="2"/>
<text x="426.4" y="233.3" fill="#bff7ff" font-family="Arial, sans-serif" font-size="12" text-anchor="middle">central_drop_lane</text>
<polygon points="297.8,161.8 392.0,146.7 407.3,237.0 328.4,255.8" fill="#0faec4" fill-opacity="0.18" stroke="#36e8ff" stroke-opacity="0.8" stroke-width="2"/>
<text x="356.4" y="200.3" fill="#bff7ff" font-family="Arial, sans-serif" font-size="12" text-anchor="middle">left_shallow_shelf_lane</text>
<polygon points="333.5,237.0 470.9,229.5 486.2,297.2 369.1,323.6" fill="#0faec4" fill-opacity="0.18" stroke="#36e8ff" stroke-opacity="0.8" stroke-width="2"/>
<text x="414.9" y="271.8" fill="#bff7ff" font-family="Arial, sans-serif" font-size="12" text-anchor="middle">left_chamber_lane</text>
<polygon points="460.7,188.1 537.1,176.8 557.5,255.8 481.1,270.9" fill="#0faec4" fill-opacity="0.18" stroke="#36e8ff" stroke-opacity="0.8" stroke-width="2"/>
<text x="509.1" y="222.9" fill="#bff7ff" font-family="Arial, sans-serif" font-size="12" text-anchor="middle">right_shelf_lane</text>
<polygon points="969.8,203.2 1071.6,210.7 1081.8,267.1 974.9,267.1" fill="#0faec4" fill-opacity="0.18" stroke="#36e8ff" stroke-opacity="0.8" stroke-width="2"/>
<text x="1024.5" y="237.0" fill="#bff7ff" font-family="Arial, sans-serif" font-size="12" text-anchor="middle">right_chamber_lane</text>
<polygon points="460.7,338.6 669.5,338.6 669.5,421.4 465.8,421.4" fill="#0faec4" fill-opacity="0.18" stroke="#36e8ff" stroke-opacity="0.8" stroke-width="2"/>
<text x="566.4" y="380.0" fill="#bff7ff" font-family="Arial, sans-serif" font-size="12" text-anchor="middle">lower_basin_lane</text>
<polygon points="68.7,158.0 287.6,165.5 308.0,301.0 84.0,323.6" fill="#0faec4" fill-opacity="0.18" stroke="#36e8ff" stroke-opacity="0.8" stroke-width="2"/>
<text x="187.1" y="237.0" fill="#bff7ff" font-family="Arial, sans-serif" font-size="12" text-anchor="middle">far_west_chamber_lane</text>
<polygon points="542.2,203.2 852.7,210.7 868.0,316.0 542.2,323.6" fill="#0faec4" fill-opacity="0.18" stroke="#36e8ff" stroke-opacity="0.8" stroke-width="2"/>
<text x="701.3" y="263.4" fill="#bff7ff" font-family="Arial, sans-serif" font-size="12" text-anchor="middle">mid_crossing_lane</text>
<polygon points="969.8,188.1 1183.6,203.2 1204.0,323.6 974.9,316.0" fill="#0faec4" fill-opacity="0.18" stroke="#36e8ff" stroke-opacity="0.8" stroke-width="2"/>
<text x="1083.1" y="257.7" fill="#bff7ff" font-family="Arial, sans-serif" font-size="12" text-anchor="middle">far_right_chamber_lane</text>
<polygon points="542.2,383.8 842.5,391.3 857.8,496.6 542.2,511.7" fill="#0faec4" fill-opacity="0.18" stroke="#36e8ff" stroke-opacity="0.8" stroke-width="2"/>
<text x="696.2" y="445.8" fill="#bff7ff" font-family="Arial, sans-serif" font-size="12" text-anchor="middle">deep_spine_lane</text>
</g>
<g opacity="0.98">
<polygon points="12.7,82.8 308.0,82.8 308.0,150.5 12.7,150.5" fill="#051012" stroke="#ff553d" stroke-width="2"/>
<text x="160.4" y="116.6" fill="#ffd5cc" font-family="Arial, sans-serif" font-size="11" text-anchor="middle">left_solid_wall</text>
<polygon points="491.3,82.8 1382.2,82.8 1382.2,158.0 491.3,150.5" fill="#051012" stroke="#ff553d" stroke-width="2"/>
<text x="936.7" y="118.5" fill="#ffd5cc" font-family="Arial, sans-serif" font-size="11" text-anchor="middle">right_solid_wall</text>
<polygon points="12.7,301.0 297.8,301.0 328.4,383.8 12.7,398.8" fill="#051012" stroke="#ff553d" stroke-width="2"/>
<text x="162.9" y="346.1" fill="#ffd5cc" font-family="Arial, sans-serif" font-size="11" text-anchor="middle">left_starter_ledge</text>
<polygon points="302.9,391.3 506.5,398.8 567.6,459.0 313.1,474.1" fill="#051012" stroke="#ff553d" stroke-width="2"/>
<text x="422.5" y="430.8" fill="#ffd5cc" font-family="Arial, sans-serif" font-size="11" text-anchor="middle">right_starter_ledge</text>
<polygon points="521.8,158.0 974.9,165.5 974.9,225.7 521.8,218.2" fill="#051012" stroke="#ff553d" stroke-width="2"/>
<text x="748.4" y="191.9" fill="#ffd5cc" font-family="Arial, sans-serif" font-size="11" text-anchor="middle">blockout_east_reef_mass</text>
<polygon points="521.8,361.2 974.9,353.7 974.9,413.9 521.8,428.9" fill="#051012" stroke="#ff553d" stroke-width="2"/>
<text x="748.4" y="389.4" fill="#ffd5cc" font-family="Arial, sans-serif" font-size="11" text-anchor="middle">blockout_lower_basin_floor</text>
<polygon points="12.7,150.5 84.0,150.5 78.9,301.0 12.7,301.0" fill="#051012" stroke="#ff553d" stroke-width="2"/>
<text x="47.1" y="225.7" fill="#ffd5cc" font-family="Arial, sans-serif" font-size="11" text-anchor="middle">blockout_west_cave_shelf</text>
<polygon points="272.4,158.0 333.5,150.5 348.7,248.3 297.8,285.9" fill="#051012" stroke="#ff553d" stroke-width="2"/>
<text x="313.1" y="210.7" fill="#ffd5cc" font-family="Arial, sans-serif" font-size="11" text-anchor="middle">blockout_left_chamber_ceiling</text>
<polygon points="1234.5,180.6 1382.2,225.7 1382.2,451.5 1234.5,391.3" fill="#051012" stroke="#ff553d" stroke-width="2"/>
<text x="1308.4" y="312.3" fill="#ffd5cc" font-family="Arial, sans-serif" font-size="11" text-anchor="middle">blockout_right_chamber_shelf</text>
<polygon points="12.7,398.8 180.7,376.2 272.4,421.4 272.4,504.2 12.7,504.2" fill="#051012" stroke="#ff553d" stroke-width="2"/>
<text x="150.2" y="441.0" fill="#ffd5cc" font-family="Arial, sans-serif" font-size="11" text-anchor="middle">blockout_far_west_shelf</text>
<polygon points="318.2,451.5 470.9,413.9 501.5,496.6 333.5,541.8" fill="#051012" stroke="#ff553d" stroke-width="2"/>
<text x="406.0" y="475.9" fill="#ffd5cc" font-family="Arial, sans-serif" font-size="11" text-anchor="middle">blockout_mid_crossing_ceiling</text>
<polygon points="491.3,496.6 954.5,481.6 1005.5,745.0 470.9,745.0" fill="#051012" stroke="#ff553d" stroke-width="2"/>
<text x="730.5" y="617.0" fill="#ffd5cc" font-family="Arial, sans-serif" font-size="11" text-anchor="middle">blockout_deep_spine_floor</text>
<polygon points="974.9,353.7 1234.5,391.3 1336.4,496.6 1020.7,466.5" fill="#051012" stroke="#ff553d" stroke-width="2"/>
<text x="1141.6" y="427.0" fill="#ffd5cc" font-family="Arial, sans-serif" font-size="11" text-anchor="middle">blockout_far_right_pocket_wall</text>
</g>
<g stroke="#43606f" stroke-width="1" stroke-dasharray="5 8" opacity="0.5">
<line x1="0" y1="-82.8" x2="1400" y2="-82.8"/>
<text x="10" y="-86.8" fill="#9fb6c2" font-family="Arial, sans-serif" font-size="12">0m</text>
<line x1="0" y1="105.3" x2="1400" y2="105.3"/>
<text x="10" y="101.3" fill="#9fb6c2" font-family="Arial, sans-serif" font-size="12">50m</text>
<line x1="0" y1="293.5" x2="1400" y2="293.5"/>
<text x="10" y="289.5" fill="#9fb6c2" font-family="Arial, sans-serif" font-size="12">100m</text>
<line x1="0" y1="481.6" x2="1400" y2="481.6"/>
<text x="10" y="477.6" fill="#9fb6c2" font-family="Arial, sans-serif" font-size="12">150m</text>
<line x1="0" y1="669.7" x2="1400" y2="669.7"/>
<text x="10" y="665.7" fill="#9fb6c2" font-family="Arial, sans-serif" font-size="12">200m</text>
</g>
</svg>
