<svg xmlns="http://www.w3.org/2000/svg" width="128" height="88" viewBox="0 0 128 88">
  <defs>
    <linearGradient id="wreckHull" x1="0" y1="0" x2="1" y2="1">
      <stop offset="0%" stop-color="#36566a"/>
      <stop offset="58%" stop-color="#182938"/>
      <stop offset="100%" stop-color="#071019"/>
    </linearGradient>
    <radialGradient id="weakSignal" cx="62%" cy="46%" r="60%">
      <stop offset="0%" stop-color="#f2ff8a" stop-opacity="0.65"/>
      <stop offset="50%" stop-color="#7cf8ff" stop-opacity="0.32"/>
      <stop offset="100%" stop-color="#7cf8ff" stop-opacity="0"/>
    </radialGradient>
    <filter id="signalGlow" x="-30%" y="-45%" width="160%" height="190%">
      <feGaussianBlur stdDeviation="2.8" result="blur"/>
      <feMerge>
        <feMergeNode in="blur"/>
        <feMergeNode in="SourceGraphic"/>
      </feMerge>
    </filter>
  </defs>
  <ellipse cx="75" cy="47" rx="45" ry="30" fill="url(#weakSignal)" filter="url(#signalGlow)"/>
  <path d="M12 58 L34 30 L78 20 L116 42 L104 66 L48 72 Z" fill="url(#wreckHull)"/>
  <path d="M26 56 L42 40 L78 34 L100 45 L92 57 L52 62 Z" fill="#0b1722" opacity="0.68"/>
  <path d="M32 30 L46 10 L76 20 Z" fill="#3f6375" opacity="0.7"/>
  <path d="M80 21 L110 20 L116 42 Z" fill="#244153" opacity="0.74"/>
  <path d="M44 47 L75 43 L91 50 L70 58 L40 56 Z" fill="#cffe54" opacity="0.5"/>
  <path d="M18 62 L6 76 M49 72 L38 84 M104 66 L122 78" stroke="#6befff" stroke-width="4" stroke-linecap="round" opacity="0.28"/>
  <path d="M28 50 L43 43 L39 52 L24 58 Z" fill="#7cf8ff" opacity="0.26"/>
  <circle cx="84" cy="48" r="4" fill="#eaff76" opacity="0.62"/>
</svg>
