<svg xmlns="http://www.w3.org/2000/svg" width="96" height="96" viewBox="0 0 96 96">
  <defs>
    <linearGradient id="shell" x1="0" y1="0" x2="0" y2="1">
      <stop offset="0%" stop-color="#fff2b3"/>
      <stop offset="52%" stop-color="#efc86e"/>
      <stop offset="100%" stop-color="#b8783f"/>
    </linearGradient>
    <linearGradient id="shadow" x1="0" y1="0" x2="1" y2="1">
      <stop offset="0%" stop-color="#6e4938" stop-opacity="0.2"/>
      <stop offset="100%" stop-color="#412728" stop-opacity="0.58"/>
    </linearGradient>
  </defs>
  <ellipse cx="48" cy="77" rx="34" ry="8" fill="#402936" opacity="0.28"/>
  <path d="M14 62 C18 33, 39 15, 66 20 C82 31, 88 52, 76 68 C57 78, 34 77, 14 62 Z" fill="url(#shell)"/>
  <path d="M14 62 C32 68, 57 72, 76 68 C62 80, 35 82, 14 62 Z" fill="url(#shadow)"/>
  <path d="M47 69 C42 52, 42 33, 50 19" fill="none" stroke="#fff8cf" stroke-width="4" stroke-linecap="round" opacity="0.72"/>
  <path d="M30 65 C28 50, 32 32, 43 21" fill="none" stroke="#fff0aa" stroke-width="4" stroke-linecap="round" opacity="0.62"/>
  <path d="M64 67 C66 52, 63 34, 56 21" fill="none" stroke="#ffe59a" stroke-width="4" stroke-linecap="round" opacity="0.58"/>
  <path d="M20 55 C29 52, 38 54, 45 61" fill="none" stroke="#a65d3c" stroke-width="3" stroke-linecap="round" opacity="0.34"/>
  <path d="M72 58 C62 55, 54 57, 48 64" fill="none" stroke="#8d4d38" stroke-width="3" stroke-linecap="round" opacity="0.34"/>
  <path d="M24 36 L12 25 L26 25 Z" fill="#f4d98a" opacity="0.9"/>
  <path d="M72 30 L84 20 L83 37 Z" fill="#d99e61" opacity="0.9"/>
  <circle cx="33" cy="30" r="3" fill="#fff6c6" opacity="0.7"/>
  <circle cx="62" cy="28" r="2.5" fill="#ffe49a" opacity="0.66"/>
</svg>
