<svg xmlns="http://www.w3.org/2000/svg" width="1280" height="1340" viewBox="0 0 1280 1340">
  <title>OceanGame shallow/midwater background study v1 source</title>
  <desc>Muted background-only depth and distant reef silhouette study for the shallow and midwater bands.</desc>
  <rect width="1280" height="1340" fill="none"/>
  <g opacity="0.38">
    <path d="M0 82 C170 40 318 62 470 126 C628 193 790 178 938 126 C1078 77 1180 82 1280 126 L1280 316 C1150 264 1028 252 886 294 C724 342 560 338 400 288 C240 238 112 244 0 294 Z" fill="#5fa7b0"/>
    <path d="M0 358 C145 290 318 312 476 388 C622 459 756 462 910 386 C1068 306 1190 330 1280 390 L1280 628 C1150 568 1038 548 900 606 C714 684 552 676 374 600 C212 530 104 548 0 608 Z" fill="#477f8d"/>
    <path d="M0 720 C154 660 282 684 430 762 C590 846 790 844 960 760 C1096 693 1196 708 1280 772 L1280 1058 C1130 1000 1004 986 852 1042 C682 1105 512 1092 348 1024 C208 966 98 980 0 1034 Z" fill="#305a70"/>
  </g>
  <g opacity="0.28" fill="#163b4e">
    <path d="M86 1120 C112 1034 144 944 188 856 C226 940 242 1032 254 1136 Z"/>
    <path d="M1012 1132 C1038 1038 1078 932 1126 836 C1164 938 1184 1038 1196 1148 Z"/>
    <path d="M1116 1110 C1136 1038 1168 950 1212 874 C1244 958 1260 1038 1270 1128 Z"/>
  </g>
  <g opacity="0.2" fill="#6fb4ba">
    <path d="M120 238 L244 194 L356 256 L310 340 L172 336 Z"/>
    <path d="M858 212 L994 168 L1140 242 L1084 346 L916 334 Z"/>
    <path d="M236 700 L374 628 L522 720 L472 826 L294 812 Z"/>
    <path d="M736 748 L912 660 L1084 774 L1006 902 L800 884 Z"/>
  </g>
  <g opacity="0.24" fill="#265970">
    <path d="M0 1252 C162 1168 318 1140 502 1194 C672 1244 816 1252 1018 1192 C1136 1156 1224 1164 1280 1198 L1280 1340 L0 1340 Z"/>
    <path d="M132 964 C250 914 372 914 494 968 C362 990 244 1006 132 964 Z"/>
    <path d="M682 1018 C828 956 986 966 1122 1032 C968 1054 820 1064 682 1018 Z"/>
  </g>
  <g opacity="0.16" fill="#8bc7c8">
    <path d="M176 528 C220 478 270 450 326 438 C292 488 262 546 246 626 C222 590 198 558 176 528 Z"/>
    <path d="M420 538 C466 486 520 454 578 444 C540 506 508 572 492 654 C466 606 442 570 420 538 Z"/>
    <path d="M972 568 C1020 506 1078 470 1138 458 C1100 526 1068 598 1052 682 C1024 636 998 596 972 568 Z"/>
  </g>
  <g opacity="0.18" stroke="#7fc3c6" stroke-width="6" stroke-linecap="round" fill="none">
    <path d="M96 874 C138 836 150 794 132 748"/>
    <path d="M144 912 C190 870 204 824 188 774"/>
    <path d="M1070 904 C1108 858 1120 816 1102 766"/>
    <path d="M1128 944 C1174 898 1188 846 1172 792"/>
  </g>
</svg>
