<svg xmlns="http://www.w3.org/2000/svg" width="320" height="128" viewBox="0 0 320 128">
  <defs>
    <linearGradient id="face" x1="0" y1="0" x2="0" y2="1">
      <stop offset="0" stop-color="#12363c"/>
      <stop offset="0.55" stop-color="#071f28"/>
      <stop offset="1" stop-color="#020b14"/>
    </linearGradient>
    <linearGradient id="rim" x1="0" y1="0" x2="1" y2="0">
      <stop offset="0" stop-color="#78b59f" stop-opacity="0.45"/>
      <stop offset="0.5" stop-color="#a2d1ba" stop-opacity="0.65"/>
      <stop offset="1" stop-color="#4f897d" stop-opacity="0.35"/>
    </linearGradient>
  </defs>
  <path d="M16 44 L70 22 L155 14 L242 25 L304 56 L288 96 L206 113 L94 108 L24 82 Z" fill="url(#face)"/>
  <path d="M24 44 L74 28 L156 22 L238 31 L292 56 L278 66 L207 50 L143 48 L70 56 Z" fill="url(#rim)"/>
  <path d="M42 79 L110 67 L184 73 L250 66 L280 84 L214 96 L126 91 L62 96 Z" fill="#020912" opacity="0.58"/>
  <path d="M86 35 L124 29 L150 38 L119 45 Z" fill="#224d4e" opacity="0.55"/>
  <path d="M198 33 L235 43 L254 56 L210 49 Z" fill="#28585a" opacity="0.45"/>
  <path d="M78 88 L110 82 L132 91 L96 97 Z" fill="#17363a" opacity="0.7"/>
  <path d="M172 82 L214 80 L235 89 L190 96 Z" fill="#102b31" opacity="0.76"/>
</svg>
